REM DIRINDEX 1\2,1\3,1\4
REM DIRNAME folder01,folder02,folder03,folder04
TITLE ""
FILE "DISC2Track31.mp3" MP3
  TRACK 01 AUDIO
    TITLE "0:"
    INDEX 01 00:00:00
  TRACK 02 AUDIO
    TITLE "4:cjc105_3887"
    INDEX 01 00:00:15
  TRACK 03 AUDIO
    TITLE "0:"
    INDEX 01 00:03:06
  TRACK 04 AUDIO
    TITLE "3:cjc105_3888"
    INDEX 01 00:03:53
  TRACK 05 AUDIO
    TITLE "2:cjc105_3889"
    INDEX 01 00:04:56
  TRACK 06 AUDIO
    TITLE "3:cjc105_3890"
    INDEX 01 00:06:47
  TRACK 07 AUDIO
    TITLE "2:cjc105_3891"
    INDEX 01 00:07:45
  TRACK 08 AUDIO
    TITLE "3:cjc105_3892"
    INDEX 01 00:09:02
  TRACK 09 AUDIO
    TITLE "2:cjc105_3893"
    INDEX 01 00:10:14
  TRACK 10 AUDIO
    TITLE "3:cjc105_3894"
    INDEX 01 00:15:21
  TRACK 11 AUDIO
    TITLE "2:cjc105_3895"
    INDEX 01 00:16:10
  TRACK 12 AUDIO
    TITLE "3:cjc105_3896"
    INDEX 01 00:18:21
  TRACK 13 AUDIO
    TITLE "2:cjc105_3897"
    INDEX 01 00:19:42
  TRACK 14 AUDIO
    TITLE "3:cjc105_3898"
    INDEX 01 00:21:04
  TRACK 15 AUDIO
    TITLE "2:cjc105_3899"
    INDEX 01 00:21:70
  TRACK 16 AUDIO
    TITLE "3:cjc105_3900"
    INDEX 01 00:23:34
  TRACK 17 AUDIO
    TITLE "2:cjc105_3901"
    INDEX 01 00:24:65
  TRACK 18 AUDIO
    TITLE "3:cjc105_3902"
    INDEX 01 00:26:26
  TRACK 19 AUDIO
    TITLE "2:cjc105_3903"
    INDEX 01 00:27:57
  TRACK 20 AUDIO
    TITLE "3:cjc105_3904"
    INDEX 01 00:30:40
  TRACK 21 AUDIO
    TITLE "2:cjc105_3905"
    INDEX 01 00:31:59
  TRACK 22 AUDIO
    TITLE "3:cjc105_3906"
    INDEX 01 00:34:20
  TRACK 23 AUDIO
    TITLE "2:cjc105_3907"
    INDEX 01 00:35:14
  TRACK 24 AUDIO
    TITLE "3:cjc105_3908"
    INDEX 01 00:37:30
  TRACK 25 AUDIO
    TITLE "2:cjc105_3909"
    INDEX 01 00:38:28
  TRACK 26 AUDIO
    TITLE "3:cjc105_3910"
    INDEX 01 00:40:28
  TRACK 27 AUDIO
    TITLE "2:cjc105_3911"
    INDEX 01 00:41:20
  TRACK 28 AUDIO
    TITLE "3:cjc105_3912"
    INDEX 01 00:42:19
  TRACK 29 AUDIO
    TITLE "2:cjc105_3913"
    INDEX 01 00:43:31
  TRACK 30 AUDIO
    TITLE "3:cjc105_3914"
    INDEX 01 00:45:24
  TRACK 31 AUDIO
    TITLE "2:cjc105_3915"
    INDEX 01 00:46:47
  TRACK 32 AUDIO
    TITLE "3:cjc105_3916"
    INDEX 01 00:48:44
  TRACK 33 AUDIO
    TITLE "2:cjc105_3917"
    INDEX 01 00:49:33
  TRACK 34 AUDIO
    TITLE "3:cjc105_3918"
    INDEX 01 00:51:09
  TRACK 35 AUDIO
    TITLE "2:cjc105_3919"
    INDEX 01 00:52:30
  TRACK 36 AUDIO
    TITLE "3:cjc105_3920"
    INDEX 01 00:54:27
  TRACK 37 AUDIO
    TITLE "2:cjc105_3921"
    INDEX 01 00:55:40
  TRACK 38 AUDIO
    TITLE "3:cjc105_3922"
    INDEX 01 00:56:69
  TRACK 39 AUDIO
    TITLE "2:cjc105_3923"
    INDEX 01 00:57:66
  TRACK 40 AUDIO
    TITLE "3:cjc105_3924"
    INDEX 01 00:59:59
  TRACK 41 AUDIO
    TITLE "2:cjc105_3925"
    INDEX 01 01:00:70
  TRACK 42 AUDIO
    TITLE "3:cjc105_3926"
    INDEX 01 01:02:03
  TRACK 43 AUDIO
    TITLE "2:cjc105_3927"
    INDEX 01 01:02:69
  TRACK 44 AUDIO
    TITLE "3:cjc105_3928"
    INDEX 01 01:05:73
  TRACK 45 AUDIO
    TITLE "2:cjc105_3929"
    INDEX 01 01:07:04
  TRACK 46 AUDIO
    TITLE "3:cjc105_3930"
    INDEX 01 01:08:56
  TRACK 47 AUDIO
    TITLE "2:cjc105_3931"
    INDEX 01 01:09:56
  TRACK 48 AUDIO
    TITLE "3:cjc105_3932"
    INDEX 01 01:11:60
  TRACK 49 AUDIO
    TITLE "2:cjc105_3933"
    INDEX 01 01:12:46
  TRACK 50 AUDIO
    TITLE "3:cjc105_3934"
    INDEX 01 01:14:16
  TRACK 51 AUDIO
    TITLE "2:cjc105_3935"
    INDEX 01 01:15:23
  TRACK 52 AUDIO
    TITLE "3:cjc105_3936"
    INDEX 01 01:17:45
  TRACK 53 AUDIO
    TITLE "2:cjc105_3937"
    INDEX 01 01:18:41
  TRACK 54 AUDIO
    TITLE "3:cjc105_3938"
    INDEX 01 01:19:72
  TRACK 55 AUDIO
    TITLE "2:cjc105_3939"
    INDEX 01 01:21:20
  TRACK 56 AUDIO
    TITLE "3:cjc105_3940"
    INDEX 01 01:23:30
  TRACK 57 AUDIO
    TITLE "2:cjc105_3941"
    INDEX 01 01:24:45
  TRACK 58 AUDIO
    TITLE "3:cjc105_3942"
    INDEX 01 01:28:47
  TRACK 59 AUDIO
    TITLE "2:cjc105_3943"
    INDEX 01 01:29:60
  TRACK 60 AUDIO
    TITLE "3:cjc105_3944"
    INDEX 01 01:32:39
  TRACK 61 AUDIO
    TITLE "2:cjc105_3945"
    INDEX 01 01:34:16
  TRACK 62 AUDIO
    TITLE "3:cjc105_3946"
    INDEX 01 01:35:59
  TRACK 63 AUDIO
    TITLE "2:cjc105_3947"
    INDEX 01 01:37:26
  TRACK 64 AUDIO
    TITLE "3:cjc105_3948"
    INDEX 01 01:43:09
  TRACK 65 AUDIO
    TITLE "2:cjc105_3949"
    INDEX 01 01:44:50
  TRACK 66 AUDIO
    TITLE "3:cjc105_3950"
    INDEX 01 01:47:46
  TRACK 67 AUDIO
    TITLE "2:cjc105_3951"
    INDEX 01 01:49:00
  TRACK 68 AUDIO
    TITLE "3:cjc105_3952"
    INDEX 01 01:50:60
  TRACK 69 AUDIO
    TITLE "2:cjc105_3953"
    INDEX 01 01:51:68
  TRACK 70 AUDIO
    TITLE "3:cjc105_3954"
    INDEX 01 01:53:20
  TRACK 71 AUDIO
    TITLE "2:cjc105_3955"
    INDEX 01 01:54:15
  TRACK 72 AUDIO
    TITLE "3:cjc105_3956"
    INDEX 01 01:57:29
  TRACK 73 AUDIO
    TITLE "2:cjc105_3957"
    INDEX 01 01:58:25
  TRACK 74 AUDIO
    TITLE "3:cjc105_3958"
    INDEX 01 02:00:22
  TRACK 75 AUDIO
    TITLE "2:cjc105_3959"
    INDEX 01 02:01:23
  TRACK 76 AUDIO
    TITLE "3:cjc105_3960"
    INDEX 01 02:02:64
  TRACK 77 AUDIO
    TITLE "2:cjc105_3961"
    INDEX 01 02:03:63
  TRACK 78 AUDIO
    TITLE "3:cjc105_3962"
    INDEX 01 02:04:70
  TRACK 79 AUDIO
    TITLE "2:cjc105_3963"
    INDEX 01 02:05:72
  TRACK 80 AUDIO
    TITLE "3:cjc105_3964"
    INDEX 01 02:07:55
  TRACK 81 AUDIO
    TITLE "2:cjc105_3965"
    INDEX 01 02:08:60
  TRACK 82 AUDIO
    TITLE "3:cjc105_3966"
    INDEX 01 02:10:49
  TRACK 83 AUDIO
    TITLE "2:cjc105_3967"
    INDEX 01 02:11:59
  TRACK 84 AUDIO
    TITLE "3:cjc105_3968"
    INDEX 01 02:14:53
  TRACK 85 AUDIO
    TITLE "2:cjc105_3969"
    INDEX 01 02:15:60
  TRACK 86 AUDIO
    TITLE "3:cjc105_3970"
    INDEX 01 02:17:20
  TRACK 87 AUDIO
    TITLE "2:cjc105_3971"
    INDEX 01 02:18:12
  TRACK 88 AUDIO
    TITLE "3:cjc105_3972"
    INDEX 01 02:20:22
  TRACK 89 AUDIO
    TITLE "2:cjc105_3973"
    INDEX 01 02:21:24
  TRACK 90 AUDIO
    TITLE "3:cjc105_3974"
    INDEX 01 02:23:07
  TRACK 91 AUDIO
    TITLE "2:cjc105_3975"
    INDEX 01 02:24:06
  TRACK 92 AUDIO
    TITLE "3:cjc105_3976"
    INDEX 01 02:26:27
  TRACK 93 AUDIO
    TITLE "2:cjc105_3977"
    INDEX 01 02:27:22
  TRACK 94 AUDIO
    TITLE "3:cjc105_3978"
    INDEX 01 02:28:73
  TRACK 95 AUDIO
    TITLE "2:cjc105_3979"
    INDEX 01 02:30:03
  TRACK 96 AUDIO
    TITLE "3:cjc105_3980"
    INDEX 01 02:31:42
  TRACK 97 AUDIO
    TITLE "2:cjc105_3981"
    INDEX 01 02:32:49
  TRACK 98 AUDIO
    TITLE "3:cjc105_3982"
    INDEX 01 02:34:09
  TRACK 99 AUDIO
    TITLE "2:cjc105_3983"
    INDEX 01 02:35:04
  TRACK 100 AUDIO
    TITLE "3:cjc105_3984"
    INDEX 01 02:36:39
  TRACK 101 AUDIO
    TITLE "2:cjc105_3985"
    INDEX 01 02:37:23
  TRACK 102 AUDIO
    TITLE "3:cjc105_3986"
    INDEX 01 02:38:18
  TRACK 103 AUDIO
    TITLE "2:cjc105_3987"
    INDEX 01 02:39:27
  TRACK 104 AUDIO
    TITLE "3:cjc105_3988"
    INDEX 01 02:41:26
  TRACK 105 AUDIO
    TITLE "2:cjc105_3989"
    INDEX 01 02:42:22
  TRACK 106 AUDIO
    TITLE "3:cjc105_3990"
    INDEX 01 02:43:29
  TRACK 107 AUDIO
    TITLE "2:cjc105_3991"
    INDEX 01 02:44:36
  TRACK 108 AUDIO
    TITLE "3:cjc105_3992"
    INDEX 01 02:46:57
  TRACK 109 AUDIO
    TITLE "2:cjc105_3993"
    INDEX 01 02:47:58
  TRACK 110 AUDIO
    TITLE "3:cjc105_3994"
    INDEX 01 02:49:30
  TRACK 111 AUDIO
    TITLE "2:cjc105_3995"
    INDEX 01 02:50:37
  TRACK 112 AUDIO
    TITLE "3:cjc105_3996"
    INDEX 01 02:52:07
  TRACK 113 AUDIO
    TITLE "2:cjc105_3997"
    INDEX 01 02:52:69
  TRACK 114 AUDIO
    TITLE "3:cjc105_3998"
    INDEX 01 02:54:37
  TRACK 115 AUDIO
    TITLE "2:cjc105_3999"
    INDEX 01 02:55:30
  TRACK 116 AUDIO
    TITLE "3:cjc105_4000"
    INDEX 01 02:57:27
  TRACK 117 AUDIO
    TITLE "2:cjc105_4001"
    INDEX 01 02:58:37
  TRACK 118 AUDIO
    TITLE "3:cjc105_4002"
    INDEX 01 02:59:65
  TRACK 119 AUDIO
    TITLE "2:cjc105_4003"
    INDEX 01 03:00:55
  TRACK 120 AUDIO
    TITLE "3:cjc105_4004"
    INDEX 01 03:02:48
  TRACK 121 AUDIO
    TITLE "2:cjc105_4005"
    INDEX 01 03:03:44
  TRACK 122 AUDIO
    TITLE "3:cjc105_4006"
    INDEX 01 03:05:45
  TRACK 123 AUDIO
    TITLE "2:cjc105_4007"
    INDEX 01 03:06:44
  TRACK 124 AUDIO
    TITLE "3:cjc105_4008"
    INDEX 01 03:09:21
  TRACK 125 AUDIO
    TITLE "2:cjc105_4009"
    INDEX 01 03:10:10
  TRACK 126 AUDIO
    TITLE "3:cjc105_4010"
    INDEX 01 03:11:20
  TRACK 127 AUDIO
    TITLE "2:cjc105_4011"
    INDEX 01 03:12:25
  TRACK 128 AUDIO
    TITLE "3:cjc105_4012"
    INDEX 01 03:14:06
  TRACK 129 AUDIO
    TITLE "2:cjc105_4013"
    INDEX 01 03:15:25
  TRACK 130 AUDIO
    TITLE "3:cjc105_4014"
    INDEX 01 03:18:55
  TRACK 131 AUDIO
    TITLE "2:cjc105_4015"
    INDEX 01 03:19:54
  TRACK 132 AUDIO
    TITLE "3:cjc105_4016"
    INDEX 01 03:21:14
  TRACK 133 AUDIO
    TITLE "2:cjc105_4017"
    INDEX 01 03:22:10
  TRACK 134 AUDIO
    TITLE "3:cjc105_4018"
    INDEX 01 03:25:02
  TRACK 135 AUDIO
    TITLE "2:cjc105_4019"
    INDEX 01 03:26:04
  TRACK 136 AUDIO
    TITLE "3:cjc105_4020"
    INDEX 01 03:28:22
  TRACK 137 AUDIO
    TITLE "2:cjc105_4021"
    INDEX 01 03:29:18
  TRACK 138 AUDIO
    TITLE "3:cjc105_4022"
    INDEX 01 03:30:64
  TRACK 139 AUDIO
    TITLE "2:cjc105_4023"
    INDEX 01 03:31:54
  TRACK 140 AUDIO
    TITLE "3:cjc105_4024"
    INDEX 01 03:33:21
  TRACK 141 AUDIO
    TITLE "2:cjc105_4025"
    INDEX 01 03:34:19
  TRACK 142 AUDIO
    TITLE "3:cjc105_4026"
    INDEX 01 03:36:12
  TRACK 143 AUDIO
    TITLE "2:cjc105_4027"
    INDEX 01 03:37:29
  TRACK 144 AUDIO
    TITLE "3:cjc105_4028"
    INDEX 01 03:41:07
  TRACK 145 AUDIO
    TITLE "2:cjc105_4029"
    INDEX 01 03:42:26
  TRACK 146 AUDIO
    TITLE "3:cjc105_4030"
    INDEX 01 03:44:52
  TRACK 147 AUDIO
    TITLE "2:cjc105_4031"
    INDEX 01 03:45:62
  TRACK 148 AUDIO
    TITLE "3:cjc105_4032"
    INDEX 01 03:49:05
  TRACK 149 AUDIO
    TITLE "2:cjc105_4033"
    INDEX 01 03:50:04
  TRACK 150 AUDIO
    TITLE "3:cjc105_4034"
    INDEX 01 03:51:47
  TRACK 151 AUDIO
    TITLE "2:cjc105_4035"
    INDEX 01 03:52:50
  TRACK 152 AUDIO
    TITLE "3:cjc105_4036"
    INDEX 01 03:54:47
  TRACK 153 AUDIO
    TITLE "2:cjc105_4037"
    INDEX 01 03:55:56
  TRACK 154 AUDIO
    TITLE "3:cjc105_4038"
    INDEX 01 03:59:23
  TRACK 155 AUDIO
    TITLE "2:cjc105_4039"
    INDEX 01 04:00:73
  TRACK 156 AUDIO
    TITLE "3:cjc105_4040"
    INDEX 01 04:03:65
  TRACK 157 AUDIO
    TITLE "2:cjc105_4041"
    INDEX 01 04:05:02
  TRACK 158 AUDIO
    TITLE "3:cjc105_4042"
    INDEX 01 04:08:31
  TRACK 159 AUDIO
    TITLE "2:cjc105_4043"
    INDEX 01 04:10:15
  TRACK 160 AUDIO
    TITLE "3:cjc105_4044"
    INDEX 01 04:11:59
  TRACK 161 AUDIO
    TITLE "2:cjc105_4045"
    INDEX 01 04:12:51
  TRACK 162 AUDIO
    TITLE "3:cjc105_4046"
    INDEX 01 04:15:08
  TRACK 163 AUDIO
    TITLE "2:cjc105_4047"
    INDEX 01 04:16:09
  TRACK 164 AUDIO
    TITLE "3:cjc105_4048"
    INDEX 01 04:18:10
  TRACK 165 AUDIO
    TITLE "2:cjc105_4049"
    INDEX 01 04:19:29
  TRACK 166 AUDIO
    TITLE "3:cjc105_4050"
    INDEX 01 04:21:16
  TRACK 167 AUDIO
    TITLE "2:cjc105_4051"
    INDEX 01 04:22:41
  TRACK 168 AUDIO
    TITLE "3:cjc105_4052"
    INDEX 01 04:24:60
  TRACK 169 AUDIO
    TITLE "2:cjc105_4053"
    INDEX 01 04:25:59
  TRACK 170 AUDIO
    TITLE "3:cjc105_4054"
    INDEX 01 04:28:48
  TRACK 171 AUDIO
    TITLE "2:cjc105_4055"
    INDEX 01 04:29:71
  TRACK 172 AUDIO
    TITLE "3:cjc105_4056"
    INDEX 01 04:33:37
  TRACK 173 AUDIO
    TITLE "2:cjc105_4057"
    INDEX 01 04:34:46
  TRACK 174 AUDIO
    TITLE "3:cjc105_4058"
    INDEX 01 04:36:12
  TRACK 175 AUDIO
    TITLE "2:cjc105_4059"
    INDEX 01 04:37:21
  TRACK 176 AUDIO
    TITLE "3:cjc105_4060"
    INDEX 01 04:39:42
  TRACK 177 AUDIO
    TITLE "2:cjc105_4061"
    INDEX 01 04:40:49
  TRACK 178 AUDIO
    TITLE "3:cjc105_4062"
    INDEX 01 04:42:11
  TRACK 179 AUDIO
    TITLE "2:cjc105_4063"
    INDEX 01 04:43:32
  TRACK 180 AUDIO
    TITLE "3:cjc105_4064"
    INDEX 01 04:46:36
  TRACK 181 AUDIO
    TITLE "2:cjc105_4065"
    INDEX 01 04:47:57
  TRACK 182 AUDIO
    TITLE "3:cjc105_4066"
    INDEX 01 04:49:40
  TRACK 183 AUDIO
    TITLE "2:cjc105_4067"
    INDEX 01 04:50:59
  TRACK 184 AUDIO
    TITLE "0:"
    INDEX 01 04:52:19
